<?xml version="1.0" encoding="utf-8"?>
<!-- Generator: Adobe Illustrator 25.0.1, SVG Export Plug-In . SVG Version: 6.00 Build 0)  -->
<svg version="1.1" id="Layer_1" xmlns="http://www.w3.org/2000/svg" xmlns:xlink="http://www.w3.org/1999/xlink" x="0px" y="0px"
	 viewBox="0 0 1730.59 406.48" style="enable-background:new 0 0 1730.59 406.48;" xml:space="preserve">
<style type="text/css">
	.st0{fill:#0B1018;}
	.st1{fill:#FFFFFF;}
	.st2{fill:#F2B31B;}
	.st3{fill:#465D70;}
</style>
<g>
	<path d="M657.37,303.13c-2.63,0-4.96,0-7.75,0c-5.06-12.31-10.2-24.88-15.38-37.43c-5.19-12.58-10.43-25.14-15.63-37.72
		c-5.2-12.58-10.38-25.17-15.56-37.75c-5.19-12.6-10.38-25.19-15.54-37.8c-5.14-12.55-10.21-25.14-15.74-37.72
		c-9.28,20.8-17.57,41.78-26.18,62.62c-8.64,20.93-17.17,41.9-25.71,62.87c-8.53,20.96-17,41.95-25.52,62.99c-2.65,0-5.12,0-8.12,0
		c27.26-66.76,54.42-133.27,81.6-199.86c2.58,0,5.04,0,7.59,0C601.64,170.35,629.99,236.37,657.37,303.13z"/>
	<path d="M1040.85,103.31v188.56c-0.15,0.01-0.3,0.02-0.44,0.03c-30.48-62.94-60.96-125.87-91.33-188.59h-8.89
		c32.42,66.76,64.66,133.14,96.94,199.62c1.83,0,3.68,0,5.52,0c1.95,0,3.91,0,5.97,0V103.31H1040.85z"/>
	<g>
		<path d="M266.01,111.03c-48.13,0-95.89,0-143.88,0c0-2.49,0-4.98,0-7.7c47.96,0,95.83,0,143.88,0
			C266.01,105.77,266.01,108.14,266.01,111.03z"/>
		<path d="M122.57,103.32v7.7c17.22,0,34.26,0,51.3,0c16.87,0,33.73,0.01,50.6,0.01c13.99,0,27.98,0,41.97,0v-7.71H122.57z"/>
	</g>
	<path d="M198.37,138.49l-7.7,0c0,19.68,0,39.16,0,58.64c0,19.28-0.01,38.56-0.01,57.84c0,15.99,0,31.98,0,47.98h7.71L198.37,138.49
		z"/>
	<g>
		<path d="M385.83,221.81c9.72-0.05,19.14-1.74,28.27-5.13c11.5-4.26,21.09-11.11,27.61-21.54c9.36-14.95,11.68-31.3,7.52-48.34
			c-4.31-17.65-14.95-30.22-31.83-37.35c-10.08-4.26-20.69-5.93-31.5-6.02c-23.42-0.2-46.84-0.08-70.26-0.08
			c-0.82,0-1.65,0.12-2.55,0.18v7.33c0.07,0.01,0.14,0.03,0.2,0.04c0.03-0.07,0.09-0.13,0.18-0.13c0.99-0.08,1.98-0.04,2.96,0.06
			c1.01,0.1,2.02,0.07,3.03,0.04c0.14,0,0.27,0,0.41-0.01c0.06,0,0.12-0.01,0.18-0.01c0.04,0,0.07,0,0.1,0.01
			c0.79-0.01,1.58-0.02,2.37,0c0.76,0.02,1.53,0.1,2.29,0.08c0.01-0.09,0.07-0.18,0.2-0.18c2.69,0,5.38,0.01,8.07,0.01
			c0.03-0.01,0.06-0.02,0.09-0.02c1.26,0,2.52,0,3.78,0c0.87,0,1.74,0.09,2.6,0.2c0.03-0.07,0.09-0.14,0.18-0.15
			c0.55-0.07,1.1-0.05,1.65-0.03c0.56,0.02,1.13,0.02,1.69,0.02h6.14c2,0,4.06-0.12,6.04,0.22c0.01,0,0.01,0.01,0.02,0.01
			c9.76-0.01,19.51-0.01,29.27,0.01c7.65,0.02,15.24,0.79,22.67,2.8c10.31,2.79,19.26,7.78,25.9,16.33
			c9.28,11.95,12.21,25.63,10.07,40.36c-2.9,19.93-14.19,33.17-33.11,39.91c-7.61,2.71-15.5,4.03-23.56,4.09
			c-12.4,0.1-24.8,0.08-37.2,0.12c-0.64,0-1.28,0.06-2.19,0.13c0.47,0.44,1.05,0.76,1.55,1.16c0.65,0.53,1.21,1.11,1.72,1.76
			c1.02,1.31,2.38,2.33,3.55,3.51c0.65,0.65,1.34,1.25,1.92,1.96c0.51,0.62,0.96,1.29,1.5,1.89c1.08,1.22,2.44,2.16,3.72,3.15
			c0.05,0.04,0.08,0.1,0.11,0.15c0.05,0.03,0.1,0.04,0.14,0.08c1.98,1.74,3.96,3.47,5.98,5.16c0.97,0.82,2.03,1.51,2.92,2.42
			c0.83,0.86,1.54,1.73,2.23,2.71c0.18,0.26,0.16,0.59,0.03,0.88c0.44,0.51,0.88,1,1.39,1.45c0.73,0.65,1.41,1.35,2.14,2
			c0.72,0.64,1.52,1.21,2.2,1.9c0.55,0.55,0.89,1.33,1.52,1.76c0.3,0.21,0.48,0.54,0.47,0.88c0.18,0.08,0.35,0.21,0.47,0.38
			c1.32,1.86,3.19,3.22,4.88,4.71c0.85,0.76,1.55,1.61,2.3,2.47c0.39,0.45,0.78,0.88,1.14,1.35c0.19,0.24,0.37,0.49,0.54,0.74
			c0.09,0.14,0.16,0.29,0.31,0.38c0.32,0.21,0.44,0.51,0.44,0.81c0.16,0.03,0.32,0.09,0.47,0.22c1.15,0.97,2.45,1.76,3.64,2.68
			c1.14,0.87,2.24,1.79,3.28,2.78c1.07,1.02,2.05,2.11,2.98,3.26c0.94,1.17,1.95,2.21,2.99,3.28c0.27,0.28,0.31,0.6,0.23,0.88
			c2.1,1.51,3.98,3.34,5.89,5.08c0.96,0.88,1.98,1.7,2.93,2.59c0.45,0.43,0.87,0.89,1.22,1.41c0.15,0.22,0.28,0.45,0.39,0.7
			c0.08,0.19,0.13,0.38,0.29,0.51c0.3,0.24,0.34,0.67,0.21,1.02c0.48,0.45,0.93,0.92,1.38,1.38c0.74,0.75,1.47,1.52,2.22,2.26
			c1.42,1.42,3.07,2.59,4.47,4.03c0.13,0.14,0.21,0.28,0.25,0.43c0.04,0.03,0.07,0.04,0.11,0.08c0.89,1,2,1.8,2.99,2.71
			c0.97,0.89,1.87,1.83,2.65,2.9c0.79,1.07,1.49,2.18,2.41,3.16c0.48,0.51,1,0.97,1.55,1.41c0.55,0.45,1.02,0.96,1.56,1.43
			c0.1,0.09,0.17,0.19,0.22,0.28h9.22c-26.79-27.29-53-54-79.63-81.12C371.82,221.82,378.82,221.85,385.83,221.81z"/>
		<path d="M312.88,103.33v7.7c6.22,0,12.38,0,18.55,0c6.1,0,12.19,0.01,18.29,0.01c5.06,0,10.12,0,15.17,0v-7.71H312.88z"/>
		<path d="M444.14,302.95l-87.04-88.32c-3.6,0-7.2,0.01-10.81,0.01c5.87,5.96,11.73,11.91,17.59,17.85c13.79,14,27.58,28,41.38,42
			c9.35,9.49,18.7,18.97,28.05,28.46H444.14z"/>
	</g>
	<path d="M911.56,103.33h-7.7c0,23.89,0,47.53,0,71.18c0,23.4-0.01,46.8-0.01,70.2c0,19.41,0,38.82,0,58.23h7.71V103.33z"/>
	<g>
		<path d="M1250.83,204.3h-7.35c0,7.62,0,15.16,0,22.7c0,7.46-0.01,14.93-0.01,22.39c0,6.19,0,12.38,0,18.57h7.35V204.3z"/>
		<path d="M1241.52,295.42c-1.2,0-2.17,0-3.13,0c-11.38,0-22.76-0.1-34.14,0.01c-15.34,0.15-30.15-2.49-43.94-9.23
			c-32.79-16.03-52.48-41.48-55.17-78.6c-1.03-14.19,1.61-27.82,7.66-40.75c8.86-18.95,22.55-33.34,40.91-43.34
			c11.66-6.35,24.03-10.94,37.26-11.79c14.19-0.91,28.46-0.55,42.69-0.71c5.46-0.06,10.92-0.01,16.54-0.01v-7.64
			c-1.36,0-2.46,0-3.57,0c-13.88,0-27.76,0.07-41.64-0.03c-13.75-0.09-27.11,1.91-40.03,6.74c-19.92,7.45-36.59,19.27-49.1,36.59
			c-14.33,19.85-20.41,42.03-18.07,66.38c1.48,15.41,6.6,29.68,15.21,42.56c11.98,17.92,28.02,31.04,47.95,39.3
			c13.08,5.42,26.76,7.98,40.91,8c15.26,0.02,30.51,0.03,45.77,0.02c0.82,0,1.63-0.14,2.29-0.2v-7.26
			C1247.15,295.44,1244.34,295.42,1241.52,295.42z"/>
		<path d="M1249.85,103.33v7.7c0.12,0,0.23,0,0.35,0c0.11,0,0.23,0.01,0.34,0.01c0.1,0,0.19,0,0.29,0v-7.7H1249.85z"/>
		<path d="M1230.83,295.42v7.51c2.39,0,4.76,0,7.13,0c2.34,0,4.69,0.01,7.04,0.01c1.95,0,3.89,0,5.84,0v-7.52H1230.83z"/>
	</g>
	<circle class="st3" cx="1308.23" cy="291.92" r="10.98"/>
	<g>
		<path class="st3" d="M1491.68,254.47v48.89h-2.98v-48.89c0-20.52-10-31.42-26.86-31.42c-19.7,0-31.64,14.27-31.64,35.27v45.05
			h-2.98v-48.89c0-20.52-10-31.42-26.86-31.42c-19.7,0-31.64,14.27-31.64,35.27v45.05h-2.98v-82.88h2.98v21.96
			c4.48-13.79,15.67-22.44,31.49-22.44c15.67,0,26.26,8.5,29.25,24.69c3.88-14.75,15.37-24.69,32.23-24.69
			C1480.19,220,1491.68,232.03,1491.68,254.47z"/>
		<path class="st3" d="M1600.21,184.42v118.94h-3.31v-25.33c-5.8,15.71-20.37,25.81-38.26,25.81c-23.52,0-41.57-17.47-41.57-42
			c0-24.53,18.05-41.84,41.57-41.84c17.89,0,32.46,10.1,38.26,25.65v-61.24H1600.21z M1596.89,261.84
			c0-22.92-16.4-38.79-38.26-38.79s-38.26,15.87-38.26,38.79c0,22.92,16.4,38.95,38.26,38.95S1596.89,284.77,1596.89,261.84z"/>
	</g>
	<circle class="st2" cx="571.81" cy="291.95" r="10.98"/>
	<g>
		<g>
			<path d="M699.9,302.93c0-2.77,0-4.98,0-7.49c1.05-0.07,1.99-0.18,2.94-0.18c15.91-0.01,31.82,0,47.73,0
				c13.45,0.01,26.33-2.72,38.63-8.09c13.43-5.87,24.81-14.55,34.03-25.87c15.83-19.43,22.36-41.85,20.24-66.68
				c-2.55-29.87-17.05-52.83-41.9-69.24c-12.52-8.27-26.65-12.55-41.63-13.81c-4.36-0.37-8.75-0.48-13.13-0.49
				c-15.03-0.05-30.06,0-45.1,0.01c-0.48,0-0.97-0.09-1.69-0.16c0-2.39,0-4.69,0-7.29c0.74-0.07,1.56-0.2,2.38-0.2
				c16.54,0,33.08-0.3,49.6,0.1c25.51,0.62,48.42,8.61,67.42,26.01c15.07,13.8,24.88,30.89,29.32,50.79
				c5.56,24.96,2.49,48.95-10.08,71.33c-14.28,25.42-36.01,41.34-64.31,48.36c-7.56,1.87-15.27,2.67-23.07,2.69
				c-16.15,0.05-32.31,0.14-48.46,0.22C701.97,302.94,701.12,302.93,699.9,302.93z"/>
			<path d="M699.9,103.41v7.68c5.39,0,10.73,0,16.06,0c5.28,0,10.56,0.01,15.84,0.01c4.38,0,8.76,0,13.14,0v-7.69H699.9z"/>
			<path d="M699.72,295.27v7.66c0.52,0,1.03,0,1.54,0c0.51,0,1.01,0.01,1.52,0.01c0.42,0,0.84,0,1.26,0v-7.66H699.72z"/>
		</g>
		<rect x="699.72" y="302.92" transform="matrix(1 -7.509133e-03 7.509133e-03 1 -2.255 5.2635)" width="0.18" height="0.01"/>
	</g>
</g>
</svg>
